<svg width="16" height="16" viewBox="0 0 16 16" fill="none" xmlns="http://www.w3.org/2000/svg">
<path d="M2.8 4C2.48174 4 2.17652 3.87357 1.95147 3.64853C1.72643 3.42348 1.6 3.11826 1.6 2.8C1.6 2.48174 1.72643 2.17652 1.95147 1.95147C2.17652 1.72643 2.48174 1.6 2.8 1.6C3.11826 1.6 3.42348 1.72643 3.64853 1.95147C3.87357 2.17652 4 2.48174 4 2.8C4 3.11826 3.87357 3.42348 3.64853 3.64853C3.42348 3.87357 3.11826 4 2.8 4ZM15.528 7.664L8.328 0.464C8.04 0.176 7.64 0 7.2 0H1.6C0.712 0 0 0.712 0 1.6V7.2C0 7.64 0.176 8.04 0.472 8.328L7.664 15.528C7.96 15.816 8.36 16 8.8 16C9.24 16 9.64 15.816 9.928 15.528L15.528 9.928C15.824 9.64 16 9.24 16 8.8C16 8.352 15.816 7.952 15.528 7.664Z" fill="#497FEC"/>
</svg>
