<svg width="20" height="18" viewBox="0 0 20 18" fill="none" xmlns="http://www.w3.org/2000/svg">
<path d="M6.66667 6.3C7.10869 6.3 7.53262 6.48964 7.84518 6.82721C8.15774 7.16477 8.33333 7.62261 8.33333 8.1C8.33333 8.57739 8.15774 9.03523 7.84518 9.37279C7.53262 9.71036 7.10869 9.9 6.66667 9.9C6.22464 9.9 5.80072 9.71036 5.48816 9.37279C5.17559 9.03523 5 8.57739 5 8.1C5 7.62261 5.17559 7.16477 5.48816 6.82721C5.80072 6.48964 6.22464 6.3 6.66667 6.3ZM10 13.5H3.33333V12.6C3.33333 11.403 5.55833 10.8 6.66667 10.8C7.775 10.8 10 11.403 10 12.6V13.5ZM16.6667 5.4H11.6667V7.2H16.6667V5.4ZM16.6667 9H11.6667V10.8H16.6667V9ZM16.6667 12.6H11.6667V14.4H16.6667V12.6ZM18.3333 1.8H11.6667V3.6H18.3333V16.2H1.66667V3.6H8.33333V1.8H1.66667C1.22464 1.8 0.800716 1.98964 0.488155 2.32721C0.175595 2.66477 0 3.12261 0 3.6L0 16.2C0 16.6774 0.175595 17.1352 0.488155 17.4728C0.800716 17.8104 1.22464 18 1.66667 18H18.3333C18.7754 18 19.1993 17.8104 19.5118 17.4728C19.8244 17.1352 20 16.6774 20 16.2V3.6C20 3.12261 19.8244 2.66477 19.5118 2.32721C19.1993 1.98964 18.7754 1.8 18.3333 1.8ZM10.8333 3.6H9.16667V0H10.8333V3.6Z" fill="black"/>
</svg>
