<svg width="17" height="17" viewBox="0 0 17 17" fill="none" xmlns="http://www.w3.org/2000/svg">
<path d="M15.5 0.5H0.5V5.5H15.5V0.5ZM13.8333 3.83333H2.16667V2.16667H13.8333V3.83333ZM10.0833 7.16667C10.3167 7.16667 10.5 7.35 10.5 7.58333V8.83333H5.5V7.58333C5.5 7.35 5.68333 7.16667 5.91667 7.16667H10.0833ZM13 8.90833V6.33333H14.6667V8.90833C14.3917 8.86667 14.1167 8.83333 13.8333 8.83333C13.55 8.83333 13.275 8.86667 13 8.90833ZM8.83333 13.8333C8.83333 14.4167 8.94167 14.975 9.125 15.5H1.33333V6.33333H3V13.8333H8.83333ZM16.75 12.375L12.7917 16.3333L10.5 13.8333L11.4667 12.8667L12.7917 14.1917L15.7833 11.2L16.75 12.375Z" fill="black"/>
</svg>
