<svg width="30" height="30" viewBox="0 0 30 30" fill="none" xmlns="http://www.w3.org/2000/svg">
<path d="M30 27.8279L1.82857 0L0 1.79126L6.74286 8.44852C5.97143 9.87306 5.55714 11.4669 5.55714 13.0748V21.5374L2.7 24.3583V25.7687H24.2857L28.1857 29.6192L30 27.8279ZM8.41429 22.9478V13.0748C8.41429 12.2144 8.57143 11.3681 8.9 10.5783L21.4286 22.9478H8.41429ZM12.7 27.1791H18.4143C18.4143 27.9273 18.1133 28.6448 17.5774 29.1738C17.0416 29.7028 16.3149 30 15.5571 30C14.7994 30 14.0727 29.7028 13.5368 29.1738C13.001 28.6448 12.7 27.9273 12.7 27.1791ZM10.2571 4.73907C11.0143 4.25952 11.8429 3.90691 12.7 3.61072C12.7 3.46968 12.7 3.34274 12.7 3.20169C12.7 2.45355 13.001 1.73605 13.5368 1.20703C14.0727 0.678016 14.7994 0.380818 15.5571 0.380818C16.3149 0.380818 17.0416 0.678016 17.5774 1.20703C18.1133 1.73605 18.4143 2.45355 18.4143 3.20169C18.4143 3.34274 18.4143 3.46968 18.4143 3.61072C22.6571 4.8519 25.5571 8.7024 25.5571 13.0748V19.8449L22.7 17.024V13.0748C22.7 11.2044 21.9475 9.41065 20.6079 8.0881C19.2684 6.76556 17.4515 6.02257 15.5571 6.02257C14.4429 6.02257 13.3429 6.30465 12.3571 6.81241L10.2571 4.73907Z" fill="#754F44"/>
</svg>
