<svg width="34" height="34" viewBox="0 0 34 34" fill="none" xmlns="http://www.w3.org/2000/svg">
<path d="M14.1665 29.75H19.8332C19.8332 30.5015 19.5347 31.2222 19.0033 31.7535C18.472 32.2849 17.7513 32.5834 16.9998 32.5834C16.2484 32.5834 15.5277 32.2849 14.9964 31.7535C14.465 31.2222 14.1665 30.5015 14.1665 29.75ZM29.7498 26.9167V28.3334H4.24984V26.9167L7.08317 24.0834V15.5834C7.08317 11.1917 9.959 7.32421 14.1665 6.07754C14.1665 5.93587 14.1665 5.80837 14.1665 5.66671C14.1665 4.91526 14.465 4.19459 14.9964 3.66324C15.5277 3.13188 16.2484 2.83337 16.9998 2.83337C17.7513 2.83337 18.472 3.13188 19.0033 3.66324C19.5347 4.19459 19.8332 4.91526 19.8332 5.66671C19.8332 5.80837 19.8332 5.93587 19.8332 6.07754C24.0407 7.32421 26.9165 11.1917 26.9165 15.5834V24.0834L29.7498 26.9167ZM24.0832 15.5834C24.0832 13.7048 23.3369 11.9031 22.0085 10.5747C20.6801 9.24632 18.8785 8.50004 16.9998 8.50004C15.1212 8.50004 13.3195 9.24632 11.9912 10.5747C10.6628 11.9031 9.9165 13.7048 9.9165 15.5834V25.5H24.0832V15.5834ZM27.979 4.51921L25.9673 6.53087C28.3898 8.92504 29.7498 12.1834 29.7498 15.5834H32.5832C32.5832 11.4325 30.9398 7.43754 27.979 4.51921ZM1.4165 15.5834H4.24984C4.24984 12.1834 5.60984 8.92504 8.03234 6.53087L6.02067 4.51921C3.05984 7.43754 1.4165 11.4325 1.4165 15.5834Z" fill="#754F44"/>
</svg>
