<svg width="18" height="16" viewBox="0 0 18 16" fill="none" xmlns="http://www.w3.org/2000/svg">
<path d="M15.4813 0H2.51836C1.49058 0 0.666504 0.791111 0.666504 1.77778V5.33333H2.51836V1.77778H15.4813V14.2222H2.51836V10.6667H0.666504V14.2222C0.666504 14.6937 0.861609 15.1459 1.2089 15.4793C1.55619 15.8127 2.02721 16 2.51836 16H15.4813C15.9725 16 16.4435 15.8127 16.7908 15.4793C17.1381 15.1459 17.3332 14.6937 17.3332 14.2222V1.77778C17.3332 0.791111 16.4998 0 15.4813 0ZM7.22206 11.1822L8.53687 12.4444L13.1665 8L8.53687 3.55556L7.22206 4.80889L9.62021 7.11111H0.666504V8.88889H9.62021L7.22206 11.1822Z" fill="black"/>
</svg>
