<svg width="30" height="30" viewBox="0 0 30 30" fill="none" xmlns="http://www.w3.org/2000/svg">
<path d="M29.5 15C29.5 23.0081 23.0081 29.5 15 29.5C6.99187 29.5 0.5 23.0081 0.5 15C0.5 6.99187 6.99187 0.5 15 0.5C23.0081 0.5 29.5 6.99187 29.5 15Z" fill="#C9CCD1" stroke="#C9CCD1"/>
<path d="M15 4.5C16.2929 4.5 17.5329 5.05312 18.4471 6.03769C19.3614 7.02226 19.875 8.35761 19.875 9.75C19.875 11.1424 19.3614 12.4777 18.4471 13.4623C17.5329 14.4469 16.2929 15 15 15C13.7071 15 12.4671 14.4469 11.5529 13.4623C10.6386 12.4777 10.125 11.1424 10.125 9.75C10.125 8.35761 10.6386 7.02226 11.5529 6.03769C12.4671 5.05312 13.7071 4.5 15 4.5ZM15 17.625C20.3869 17.625 24.75 19.9744 24.75 22.875V25.5H5.25V22.875C5.25 19.9744 9.61313 17.625 15 17.625Z" fill="white"/>
</svg>
