<svg width="28" height="28" viewBox="0 0 28 28" fill="none" xmlns="http://www.w3.org/2000/svg">
<path d="M12.3222 25.6309L12.3215 25.6302C8.70734 22.0583 5.74543 19.1266 3.68126 16.3741C1.62355 13.6303 0.5 11.1178 0.5 8.39237C0.5 3.91275 3.70323 0.5 7.7 0.5C9.96814 0.5 12.1666 1.65372 13.6072 3.48318L14 3.98203L14.3928 3.48318C15.8334 1.65372 18.0319 0.5 20.3 0.5C24.2968 0.5 27.5 3.91275 27.5 8.39237C27.5 11.1178 26.3764 13.6303 24.3187 16.3741C22.2546 19.1266 19.2927 22.0583 15.6785 25.6302L15.6778 25.6309L14 27.2957L12.3222 25.6309Z" stroke="#FF015C"/>
</svg>
