<svg width="25" height="25" viewBox="0 0 25 25" fill="none" xmlns="http://www.w3.org/2000/svg">
<path d="M11.0397 22.8467L11.039 22.846C7.81109 19.6558 5.1698 17.0413 3.3297 14.5876C1.49605 12.1426 0.5 9.91048 0.5 7.49319C0.5 3.51874 3.34023 0.5 6.875 0.5C8.88214 0.5 10.8301 1.5213 12.1072 3.14312L12.5 3.64197L12.8928 3.14312C14.1699 1.5213 16.1179 0.5 18.125 0.5C21.6598 0.5 24.5 3.51874 24.5 7.49319C24.5 9.91048 23.5039 12.1426 21.6703 14.5876C19.8302 17.0413 17.1889 19.6558 13.961 22.846L13.9603 22.8467L12.5 24.2956L11.0397 22.8467Z" fill="#FF015C" stroke="#FF015C"/>
</svg>
