<svg width="25" height="25" viewBox="0 0 25 25" fill="none" xmlns="http://www.w3.org/2000/svg">
<path d="M10.5556 18.3333V14.6667H2V9.77778H10.5556V6.11111L16.6667 12.2222L10.5556 18.3333ZM10.5556 0H21.5556C22.2039 0 22.8256 0.257539 23.284 0.715961C23.7425 1.17438 24 1.79614 24 2.44444V22C24 22.6483 23.7425 23.2701 23.284 23.7285C22.8256 24.1869 22.2039 24.4444 21.5556 24.4444H10.5556C9.90725 24.4444 9.28549 24.1869 8.82707 23.7285C8.36865 23.2701 8.11111 22.6483 8.11111 22V19.5556H10.5556V22H21.5556V2.44444H10.5556V4.88889H8.11111V2.44444C8.11111 1.79614 8.36865 1.17438 8.82707 0.715961C9.28549 0.257539 9.90725 0 10.5556 0Z" fill="black"/>
</svg>
