<svg width="25" height="25" viewBox="0 0 25 25" fill="none" xmlns="http://www.w3.org/2000/svg">
<path d="M18.3333 18.75V15H9V10H18.3333V6.25L25 12.5L18.3333 18.75ZM15.6667 0C16.3739 0 17.0522 0.263392 17.5523 0.732233C18.0524 1.20107 18.3333 1.83696 18.3333 2.5V5H15.6667V2.5H3.66667V22.5H15.6667V20H18.3333V22.5C18.3333 23.163 18.0524 23.7989 17.5523 24.2678C17.0522 24.7366 16.3739 25 15.6667 25H3.66667C2.95942 25 2.28115 24.7366 1.78105 24.2678C1.28095 23.7989 1 23.163 1 22.5V2.5C1 1.83696 1.28095 1.20107 1.78105 0.732233C2.28115 0.263392 2.95942 0 3.66667 0H15.6667Z" fill="black"/>
</svg>
