<svg width="17" height="17" viewBox="0 0 17 17" fill="none" xmlns="http://www.w3.org/2000/svg">
<path d="M7.61967 15.4222L7.61897 15.4215C5.42109 13.2493 3.6348 11.4805 2.3922 9.82358C1.15605 8.17526 0.5 6.69087 0.5 5.09537C0.5 2.46806 2.37223 0.5 4.675 0.5C5.98614 0.5 7.26605 1.16816 8.10717 2.23631L8.5 2.73516L8.89283 2.23631C9.73395 1.16816 11.0139 0.5 12.325 0.5C14.6278 0.5 16.5 2.46806 16.5 5.09537C16.5 6.69087 15.8439 8.17526 14.6078 9.82358C13.3652 11.4805 11.5789 13.2493 9.38103 15.4215L9.38033 15.4222L8.5 16.2956L7.61967 15.4222Z" fill="#FF015C" stroke="#FF015C"/>
</svg>
