<svg width="21" height="20" viewBox="0 0 21 20" fill="none" xmlns="http://www.w3.org/2000/svg">
<path d="M10.5 0C8.52219 0 6.58879 0.58649 4.9443 1.6853C3.29981 2.78412 2.01809 4.3459 1.26121 6.17316C0.504333 8.00042 0.3063 10.0111 0.692152 11.9509C1.078 13.8907 2.03041 15.6725 3.42894 17.0711C4.82746 18.4696 6.60929 19.422 8.5491 19.8078C10.4889 20.1937 12.4996 19.9957 14.3268 19.2388C16.1541 18.4819 17.7159 17.2002 18.8147 15.5557C19.9135 13.9112 20.5 11.9778 20.5 10C20.5 8.68678 20.2413 7.38642 19.7388 6.17316C19.2362 4.95991 18.4997 3.85752 17.5711 2.92893C16.6425 2.00035 15.5401 1.26375 14.3268 0.761204C13.1136 0.258658 11.8132 0 10.5 0ZM13.5 8H9.5V9H12.5C12.7652 9 13.0196 9.10535 13.2071 9.29289C13.3946 9.48043 13.5 9.73478 13.5 10V13C13.5 13.2652 13.3946 13.5196 13.2071 13.7071C13.0196 13.8946 12.7652 14 12.5 14H11.5V15H9.5V14H7.5V12H11.5V11H8.5C8.23479 11 7.98043 10.8946 7.7929 10.7071C7.60536 10.5196 7.5 10.2652 7.5 10V7C7.5 6.73478 7.60536 6.48043 7.7929 6.29289C7.98043 6.10535 8.23479 6 8.5 6H9.5V5H11.5V6H13.5V8Z" fill="#754F44"/>
</svg>
